<svg width="35" height="35" viewBox="0 0 35 35" fill="none" xmlns="http://www.w3.org/2000/svg">
<g id="Group">
<path id="Vector" d="M17.5001 0C12.7473 0 12.1513 0.0201626 10.2848 0.105294C8.42208 0.190268 7.14996 0.486143 6.0368 0.918675C4.88602 1.3659 3.91009 1.96432 2.93723 2.93718C1.96432 3.91004 1.3659 4.88607 0.918727 6.03685C0.486091 7.14996 0.19032 8.42208 0.105242 10.2848C0.0201105 12.1513 0 12.7473 0 17.5001C0 22.2527 0.0201105 22.8487 0.105242 24.7152C0.19032 26.5779 0.486091 27.85 0.918727 28.9631C1.36595 30.1139 1.96437 31.0899 2.93723 32.0628C3.91014 33.0357 4.88602 33.6341 6.0368 34.0813C7.14996 34.5139 8.42208 34.8097 10.2848 34.8947C12.1513 34.9798 12.7473 35 17.5001 35C22.2527 35 22.8487 34.9798 24.7152 34.8947C26.5779 34.8097 27.85 34.5139 28.9631 34.0813C30.1139 33.6341 31.0899 33.0357 32.0628 32.0628C33.0357 31.0899 33.6341 30.1139 34.0813 28.9631C34.5139 27.85 34.8097 26.5779 34.8947 24.7152C34.9798 22.8487 35 22.2527 35 17.5001C35 12.7473 34.9798 12.1513 34.8947 10.2848C34.8097 8.42208 34.5139 7.14996 34.0813 6.03685C33.6341 4.88607 33.0357 3.91004 32.0628 2.93718C31.0899 1.96432 30.1139 1.3659 28.9631 0.918675C27.85 0.486143 26.5779 0.190268 24.7152 0.105294C22.8487 0.0201626 22.2527 0 17.5001 0ZM17.5001 3.15313C22.1727 3.15313 22.7262 3.171 24.5715 3.25519C26.2778 3.33298 27.2044 3.61807 27.821 3.85773C28.6379 4.17522 29.2208 4.55441 29.8332 5.16679C30.4456 5.77917 30.8248 6.36216 31.1423 7.17898C31.3819 7.79564 31.667 8.72228 31.7448 10.4285C31.829 12.2738 31.8469 12.8273 31.8469 17.5C31.8469 22.1727 31.829 22.7262 31.7448 24.5715C31.667 26.2778 31.3819 27.2044 31.1423 27.821C30.8248 28.6379 30.4456 29.2208 29.8332 29.8332C29.2208 30.4456 28.6378 30.8248 27.821 31.1423C27.2044 31.3819 26.2777 31.667 24.5715 31.7448C22.7265 31.829 22.173 31.8469 17.5 31.8469C12.827 31.8469 12.2736 31.829 10.4285 31.7448C8.72223 31.667 7.79564 31.3819 7.17904 31.1423C6.36211 30.8248 5.77917 30.4456 5.16684 29.8332C4.55446 29.2208 4.17522 28.6378 3.85773 27.821C3.61807 27.2044 3.33303 26.2777 3.25519 24.5715C3.171 22.7262 3.15313 22.1727 3.15313 17.5C3.15313 12.8273 3.171 12.2738 3.25519 10.4285C3.33303 8.72223 3.61807 7.79564 3.85773 7.17904C4.17522 6.36211 4.55446 5.77917 5.16679 5.16684C5.77917 4.55441 6.36216 4.17522 7.17898 3.85773C7.79564 3.61807 8.72228 3.33298 10.4285 3.25519C12.2738 3.171 12.8273 3.15313 17.5 3.15313" fill="#240000"/>
<path id="Vector_2" d="M17.5 23.3334C14.2782 23.3334 11.6666 20.7217 11.6666 17.5001C11.6666 14.2784 14.2782 11.6667 17.5 11.6667C20.7216 11.6667 23.3333 14.2784 23.3333 17.5001C23.3333 20.7217 20.7216 23.3334 17.5 23.3334ZM17.5 8.51357C12.5368 8.51357 8.51343 12.5369 8.51343 17.5001C8.51343 22.4632 12.5368 26.4865 17.5 26.4865C22.463 26.4865 26.4864 22.4632 26.4864 17.5001C26.4864 12.5369 22.463 8.51357 17.5 8.51357ZM28.9415 8.15851C28.9415 9.31835 28.0012 10.2585 26.8414 10.2585C25.6817 10.2585 24.7415 9.31835 24.7415 8.15851C24.7415 6.99872 25.6817 6.05847 26.8414 6.05847C28.0012 6.05847 28.9415 6.99872 28.9415 8.15851Z" fill="#240000"/>
</g>
</svg>
